<svg id="Capa_1" enable-background="new 0 0 512 512" height="512" viewBox="0 0 512 512" width="512" xmlns="http://www.w3.org/2000/svg"><g><g><path d="m256 376-60 40h120z" fill="#ffda8f"/><path d="m502 96v180c0 11.05-8.95 20-20 20h-106c-11.05 0-20-8.95-20-20s8.95-20 20-20h86v-120c0-22.09 17.91-40 40-40z" fill="#ffa2c3"/><path d="m396 216h-280c0-22.09 17.91-40 40-40h200c22.09 0 40 17.91 40 40z" fill="#eefaff"/><path d="m136 216h240c-15.91 0-27.88 4.85-36.78 11.17-43.447 30.861-82.736 28.736-83.22 28.83-2.384-.463-38.465 3.016-83.24-28.82-8.9-6.33-20.87-11.18-36.76-11.18z" fill="#ffda8f"/><path d="m136 256c11.05 0 20 8.95 20 20s-8.95 20-20 20h-106c-11.05 0-20-8.95-20-20v-180c22.09 0 40 17.91 40 40v120z" fill="#ffa2c3"/></g><g><path d="m345.01 235.323c8.712-6.186 19.139-9.323 30.99-9.323h20c5.523 0 10-4.477 10-10 0-27.57-22.43-50-50-50h-54.999c-5.523 0-10 4.477-10 10s4.477 10 10 10h54.999c13.038 0 24.159 8.359 28.287 20h-256.574c4.127-11.641 15.249-20 28.287-20h55.001c5.523 0 10-4.477 10-10s-4.477-10-10-10h-55.001c-27.57 0-50 22.43-50 50 0 5.523 4.477 10 10 10h20c11.843 0 22.26 3.139 30.965 9.33 25.207 17.922 52.338 28.29 79.035 30.301v105.017l-55.547 37.031c-3.667 2.444-5.301 7-4.024 11.218 1.277 4.217 5.164 7.102 9.571 7.102h120c4.407 0 8.294-2.885 9.571-7.102 1.277-4.218-.357-8.774-4.024-11.218l-55.547-37.031v-105.02c26.666-2.02 53.788-12.389 79.01-30.305zm-22.211-9.323c-21.835 13.267-44.116 20-66.389 20h-.86c-22.297 0-44.581-6.733-66.396-20zm-93.771 180 26.972-17.981 26.972 17.981z"/><path d="m20 304.28v111.72c0 5.523 4.477 10 10 10s10-4.477 10-10v-50h86v50c0 5.523 4.477 10 10 10s10-4.477 10-10v-111.72c11.639-4.128 20-15.243 20-28.28 0-16.542-13.458-30-30-30h-76v-110c0-27.57-22.43-50-50-50-5.523 0-10 4.477-10 10v180c0 13.036 8.361 24.152 20 28.28zm20 41.72v-40h86v40zm-20-238.287c11.641 4.127 20 15.249 20 28.287v120c0 5.523 4.477 10 10 10h86c5.514 0 10 4.486 10 10s-4.486 10-10 10h-106c-5.514 0-10-4.486-10-10z"/><circle cx="256.001" cy="176.001" r="10"/><path d="m502 86c-27.57 0-50 22.43-50 50v110h-76c-16.542 0-30 13.458-30 30 0 13.036 8.361 24.152 20 28.28v111.72c0 5.523 4.477 10 10 10s10-4.477 10-10v-50h86v50c0 5.523 4.477 10 10 10s10-4.477 10-10v-111.72c11.639-4.128 20-15.243 20-28.28v-180c0-5.523-4.477-10-10-10zm-116 260v-40h86v40zm106-70c0 5.514-4.486 10-10 10h-106c-5.514 0-10-4.486-10-10s4.486-10 10-10h86c5.523 0 10-4.477 10-10v-120c0-13.038 8.359-24.159 20-28.287z"/></g></g></svg>